<svg width="150" height="150" viewBox="0 0 38 38" fill="none" xmlns="http://www.w3.org/2000/svg">
   <path d="M19 30C25.0751 30 30 25.0751 30 19C30 12.9249 25.0751 8 19 8C12.9249 8 8 12.9249 8 19C8 25.0751 12.9249 30 19 30Z" fill="#feb019"></path>
   <path opacity="0.8" d="M19 2C9.63 2 2 9.63 2 19C2 28.37 9.63 36 19 36C19.34 36 19.67 35.99 20 35.97V33.96C19.67 33.99 19.34 34 19 34C10.73 34 4 27.27 4 19C4 10.73 10.73 4 19 4C27.27 4 34 10.73 34 19C34 26.24 28.84 32.31 22 33.7V35.73C29.95 34.31 36 27.35 36 19C36 9.63 28.37 2 19 2ZM18 30H16V28C12.694 28 12 26.368 12 25V22.03L10 21.97V17C10 11.701 13.701 8 19 8C24.299 8 28 11.701 28 17C28 19.415 27.271 20.75 26 22.094V28H24V21.273L24.293 20.98C25.449 19.824 26 18.933 26 17C26 12.813 23.187 10 19 10C14.813 10 12 12.813 12 17V20.029L14 20.089V25C14 25.445 14 26 16 26C16.881 26 19.107 25.824 20.731 24.199L22.145 25.613C21.063 26.696 19.611 27.449 17.999 27.792V30H18ZM18 18H14V16H18V18Z" fill="#1a1a1a"></path>
</svg>
